Patient4_TMGait_0pt6_01_left_21_EMG.mot
version=1
nRows=23
nColumns=33
inDegrees=no
endheader
time	1LAddLong	2LGlutMax	3LGlutMed	4LIliopsoas	5LSemiMemb	6LBicFemLong	7LRecFem	8LVastMed	9LVastLat	10LGasMed	11LTibAnt	12lTibPost	13LPeroneusLong	14LSol	15LExtDigLong	16LFlexDigLong	17RAddLong	18RGlutMax	19RGlutMed	20RIliopsoas	21RSemiMemb	22RBicFemLong	23RRecFem	24RVastMed	25RVastLat	26RGasMed	27RTibAnt	28RTibPost	29RPeroneusLong	30RSol	31RExtDigLong	32RFlexDigLong
25.955	0.040436	1.172	0.17532	0.019379	0.069733	-0.067139	0.33112	0.074005	-0.1767	-0.024567	0.034637	0.095825	-0.077667	-0.22308	0.035706	0.32486	-0.05127	0.52994	-0.10132	0.15457	-0.1622	-0.097046	0.5426	-0.11704	-0.028839	0.007629	0.33264	0.005493	-0.16861	-0.025635	-0.003052	-0.00824
25.956	0.050964	1.189	0.074615	0.02243	0.083008	-0.26276	0.21286	0.054932	-0.12558	0.014343	0.020294	-0.0177	0.012665	-0.31982	0.06012	-0.006866	-0.014801	0.49347	-0.13016	0.076599	-0.088806	-0.061798	0.5394	-0.11124	-0.011749	0.002136	0.3772	0.002289	-0.16968	-0.021667	-0.004578	-0.00412
25.957	0.043335	1.1006	-0.046997	0.02121	0.088501	-0.34729	0.1297	0.018005	-0.32532	0.11932	0.019989	0.079041	0.050659	-0.401	0.002289	-0.14557	0.02533	0.41962	-0.18249	-0.0177	-0.006104	-0.019073	0.55756	-0.034332	-0.008392	0.003204	0.3598	-0.003204	-0.038605	-0.06546	-0.001984	-0.011444
25.958	0.028381	1.0922	0.00061	0.006714	0.04837	-0.030975	0.14771	-0.013275	-0.62302	0.19943	0.043488	0.024719	0.19363	-0.22263	-0.038605	-0.038605	0.011902	0.38544	-0.18875	-0.10788	0.001221	0.063934	0.55435	-0.046234	-0.016174	-0.000153	-0.1326	-0.005951	-0.022736	-0.1944	-0.007782	-0.016937
25.959	0.04776	1.0246	0.10498	-0.019073	-0.030518	0.12451	0.027618	-0.033417	-0.46188	0.30792	0.03418	-0.005341	0.25559	0.04715	-0.044403	0.018158	-0.03418	0.37231	-0.15701	-0.18753	0.034943	0.14984	0.53284	-0.021973	-0.028687	0.016174	-0.64911	-0.002747	0.18753	-0.28519	-0.00061	-0.018311
25.96	0.038605	0.91522	0.041809	-0.021515	-0.052338	0.075989	-0.021515	-0.03479	-0.25574	0.29694	0.032806	0.020142	0.27878	0.095673	-0.018616	0.024872	-0.059967	0.271	-0.19516	-0.23804	0.055695	0.13794	0.53284	0.066223	-0.044708	0.02121	-0.80704	-0.007935	0.27817	-0.29724	-0.005188	-0.01358
25.961	0.029297	0.84137	-0.048218	0.028381	-0.029297	-0.064545	-0.00351	-0.019531	-0.15656	0.29434	0.02655	0.033569	0.3508	0.10208	-0.010529	0.033417	0.021057	0.22308	-0.1889	-0.32562	0.12894	0.016327	0.53406	0.066528	-0.024414	0.00061	-0.20508	-0.007935	0.085907	-0.28015	-0.005951	-0.015869
25.962	0.022888	0.81619	-0.075226	0.041809	0.010529	-0.17212	0.029144	0.00061	0.028381	0.3363	0.029144	0.055542	0.39322	0.084534	0.017395	0.012665	0.069275	0.19699	-0.19531	-0.31937	0.15228	-0.10834	0.5661	-0.055084	-0.061493	0.010986	0.18921	-0.009003	-0.053406	-0.27191	-0.010986	-0.021057
25.963	0.020599	0.76233	0.078888	0.035095	0.019836	-0.080261	-0.024261	0.008545	0.14358	0.072937	0.014343	0.05722	0.31815	0.26993	0.053864	0.010681	0.054474	0.16541	-0.15152	-0.1741	0.11398	-0.14328	0.60013	0.01358	-0.069733	-0.002747	0.50308	-0.008698	-0.045166	-0.29007	-0.00473	-0.023499
25.964	0.010376	0.73364	0.09552	0.030518	-0.005951	0.032196	-0.055237	0.017548	0.19241	-0.054169	0.023041	0.056305	-0.18066	0.35309	0.061798	0.032806	0.049591	0.096283	-0.23529	-0.10712	0.049286	-0.20462	0.63141	0	-0.069733	-0.003967	0.43015	-0.00885	0.002441	-0.24674	-0.004578	-0.02182
25.965	-0.002594	0.62882	0.06073	0.02121	-0.02243	0.10391	-0.1442	0.025024	0.13901	0.070801	0.036469	0.051727	-0.82092	0.23102	-0.018005	0.031281	0.014954	0.093384	-0.28534	-0.087891	-0.020447	-0.17425	0.62515	-0.007172	-0.072784	0.008545	0.18616	-0.010223	0.094604	-0.28091	-0.006714	-0.018005
25.966	-0.002136	0.53696	-0.084076	0.006256	-0.007324	-0.12909	-0.25497	0.031128	0.053864	-0.028076	0.018921	0.060425	0.057983	-0.094147	-0.15701	0.049591	0.014343	0.023804	-0.31067	0.070801	-0.063324	-0.19196	0.59341	-0.026093	-0.044403	0.016632	-0.3775	-0.011749	0.041809	-0.21774	-0.008545	-0.012665
25.967	-0.004425	0.44678	-0.2063	-0.002289	0.028381	0.054016	-0.34256	0.008545	0.005493	-0.29709	-0.003052	0.03952	0.10986	-0.001526	-0.078583	0.027313	0.008392	-0.098877	-0.3598	0.10132	-0.062256	-0.16724	0.57419	-0.091248	-0.057831	0.005493	-0.6337	-0.008698	-0.10757	-0.15976	-0.004578	-0.015106
25.968	0.00351	0.29877	-0.19547	-0.013428	-0.022888	0.1828	-0.43823	-0.011292	0.003052	-0.3978	0.009918	0.036469	-0.083313	0.25101	-0.003815	0.033875	-0.003204	-0.11215	-0.271	0.005951	-0.0383	-0.13031	0.62103	-0.11948	-0.064545	0.005798	-0.13473	-0.011902	-0.057831	-0.14328	-0.00351	-0.011139
25.969	0.000305	0.30777	-0.23102	0.002136	-0.1091	0.23743	-0.46402	-0.026398	0.075684	-0.30914	0.006866	0.028381	0.39612	0.16953	-0.011902	0.002899	-0.018768	-0.16815	-0.3566	-0.016937	-0.019684	-0.16815	0.60638	-0.16312	-0.052032	0.002747	-0.42282	-0.010529	-0.001221	-0.040741	-0.002289	-0.00824
25.97	0.000153	0.4184	-0.15747	0.00885	-0.13458	0.21561	-0.53497	-0.009918	0.18341	-0.19196	0.02243	0.02121	0.30884	0.030212	0.037537	-0.92651	-0.015106	-0.14923	-0.39963	0.042419	-0.029144	-0.16098	0.58945	-0.16266	-0.051727	0.011139	-0.72876	-0.009613	0.11963	-0.046082	-0.007935	-0.007935
25.971	-0.000916	0.55573	-0.08667	0.024109	-0.13092	0.13138	-0.58334	-0.006256	0.22903	-0.12573	0.041199	0.001831	-0.27557	-0.035858	0.084381	0.31693	-0.014343	-0.18341	-0.30716	0.15396	-0.046692	-0.030365	0.54123	-0.20111	-0.047302	0.002747	-0.31921	-0.010376	0.14069	-0.048218	-0.000153	-0.010986
25.972	-0.002289	0.62347	-0.042419	0.024414	-0.047607	-0.084076	-0.53192	0.011597	0.15381	0.11734	0.027313	0.002136	-0.35049	-0.022736	0.039825	0.24551	-0.002899	-0.1471	-0.33615	0.22949	-0.021667	0.039368	0.59052	-0.20096	-0.045013	-0.001984	0.036316	-0.011139	0.01236	-0.10483	-0.000153	-0.002441
25.973	0.021973	0.62531	-0.033112	0.010223	-0.032959	-0.20599	-0.5394	-0.000458	0.15381	0.26321	0.0177	-0.009918	-0.20569	0.030365	-0.023804	0.10407	0.0177	-0.24612	-0.35446	0.26672	0.007324	-0.028381	0.54749	-0.21668	-0.037079	-0.014648	-0.11658	-0.00824	-0.11581	-0.14313	-0.00351	-0.00946
25.974	0.046387	0.72037	-0.065308	0.015106	0.083771	-0.27847	-0.51773	0.005493	0.13672	0.01297	0.029449	-0.019379	0.12878	-0.01709	-0.090942	0.084534	0.009766	-0.26199	-0.40024	0.15121	-0.023651	-0.031891	0.54733	-0.23361	-0.031128	0.005646	-0.16449	-0.005951	-0.042267	-0.097046	-0.003662	-0.001678
25.975	0.052795	0.85358	0.001221	0.011749	0.12528	-0.44891	-0.42191	-0.001984	0.032806	0.045471	0.027313	-0.017548	-0.058746	0.082092	-0.038147	0.098877	0.029144	-0.33646	-0.46555	0.14313	-0.084534	-0.05722	0.51544	-0.21729	-0.032806	-0.002441	0.13336	-0.011444	-0.023346	-0.081177	-0.003052	-0.011139
25.976	0.034943	0.93704	0.020752	0.02594	0.041962	-0.45075	-0.38254	0.003052	0.0737	0.073395	0.014343	0.013123	0.023651	-0.080261	-0.001221	0.089111	0.099182	-0.36163	-0.38376	0.14786	-0.080872	-0.11719	0.53299	-0.22964	-0.045013	0	0.15823	-0.013885	-0.06958	0.002594	-0.00412	-0.011902
25.977	0.019684	1.0233	-0.001068	-0.002899	0.017853	-0.31616	-0.42511	0.000458	0.1799	0.043945	0.002594	0.12436	-0.3894	-0.3801	0.013885	-0.25436	0.12009	-0.36133	-0.49561	0.12085	-0.063477	-0.069275	0.48813	-0.18585	-0.024567	0.000458	-0.17349	-0.008392	0.011902	-0.009766	-0.005188	-0.007629
